{
	"asset":{
		"generator":"Khronos glTF Blender I/O v4.0.44",
		"version":"2.0"
	},
	"extensionsUsed":[
		"KHR_materials_specular",
		"KHR_materials_ior"
	],
	"scene":0,
	"scenes":[
		{
			"name":"Scene",
			"nodes":[
				0
			]
		}
	],
	"nodes":[
		{
			"mesh":0,
			"name":"Chair.003",
			"translation":[
				0.9850180149078369,
				-0.32431501150131226,
				1.9949599504470825
			]
		}
	],
	"materials":[
		{
			"doubleSided":true,
			"extensions":{
				"KHR_materials_specular":{
					"specularFactor":0
				},
				"KHR_materials_ior":{
					"ior":1.4500000476837158
				}
			},
			"name":"Leg",
			"pbrMetallicRoughness":{}
		},
		{
			"doubleSided":true,
			"extensions":{
				"KHR_materials_specular":{
					"specularFactor":0
				},
				"KHR_materials_ior":{
					"ior":1.4500000476837158
				}
			},
			"name":"Chair",
			"pbrMetallicRoughness":{}
		},
		{
			"doubleSided":true,
			"extensions":{
				"KHR_materials_specular":{
					"specularFactor":0
				},
				"KHR_materials_ior":{
					"ior":1.4500000476837158
				}
			},
			"name":"Cushion",
			"pbrMetallicRoughness":{}
		}
	],
	"meshes":[
		{
			"name":"Plane.013",
			"primitives":[
				{
					"attributes":{
						"POSITION":0,
						"NORMAL":1,
						"TEXCOORD_0":2
					},
					"indices":3,
					"material":0
				},
				{
					"attributes":{
						"POSITION":4,
						"NORMAL":5,
						"TEXCOORD_0":6
					},
					"indices":7,
					"material":1
				},
				{
					"attributes":{
						"POSITION":8,
						"NORMAL":9,
						"TEXCOORD_0":10
					},
					"indices":11,
					"material":2
				}
			]
		}
	],
	"accessors":[
		{
			"bufferView":0,
			"componentType":5126,
			"count":44362,
			"max":[
				0.2958751618862152,
				0.226384699344635,
				0.40029674768447876
			],
			"min":[
				-0.29526060819625854,
				-0.2945784628391266,
				-0.463194876909256
			],
			"type":"VEC3"
		},
		{
			"bufferView":1,
			"componentType":5126,
			"count":44362,
			"type":"VEC3"
		},
		{
			"bufferView":2,
			"componentType":5126,
			"count":44362,
			"type":"VEC2"
		},
		{
			"bufferView":3,
			"componentType":5123,
			"count":173952,
			"type":"SCALAR"
		},
		{
			"bufferView":4,
			"componentType":5126,
			"count":2394,
			"max":[
				0.29881444573402405,
				0.24585846066474915,
				0.47846537828445435
			],
			"min":[
				-0.2812463641166687,
				-0.3389752209186554,
				0.036043792963027954
			],
			"type":"VEC3"
		},
		{
			"bufferView":5,
			"componentType":5126,
			"count":2394,
			"type":"VEC3"
		},
		{
			"bufferView":6,
			"componentType":5126,
			"count":2394,
			"type":"VEC2"
		},
		{
			"bufferView":7,
			"componentType":5123,
			"count":10440,
			"type":"SCALAR"
		},
		{
			"bufferView":8,
			"componentType":5126,
			"count":3275,
			"max":[
				0.29334086179733276,
				0.228968545794487,
				0.47282740473747253
			],
			"min":[
				-0.279495507478714,
				-0.3305976688861847,
				0.04842228814959526
			],
			"type":"VEC3"
		},
		{
			"bufferView":9,
			"componentType":5126,
			"count":3275,
			"type":"VEC3"
		},
		{
			"bufferView":10,
			"componentType":5126,
			"count":3275,
			"type":"VEC2"
		},
		{
			"bufferView":11,
			"componentType":5123,
			"count":15576,
			"type":"SCALAR"
		}
	],
	"bufferViews":[
		{
			"buffer":0,
			"byteLength":532344,
			"byteOffset":0,
			"target":34962
		},
		{
			"buffer":0,
			"byteLength":532344,
			"byteOffset":532344,
			"target":34962
		},
		{
			"buffer":0,
			"byteLength":354896,
			"byteOffset":1064688,
			"target":34962
		},
		{
			"buffer":0,
			"byteLength":347904,
			"byteOffset":1419584,
			"target":34963
		},
		{
			"buffer":0,
			"byteLength":28728,
			"byteOffset":1767488,
			"target":34962
		},
		{
			"buffer":0,
			"byteLength":28728,
			"byteOffset":1796216,
			"target":34962
		},
		{
			"buffer":0,
			"byteLength":19152,
			"byteOffset":1824944,
			"target":34962
		},
		{
			"buffer":0,
			"byteLength":20880,
			"byteOffset":1844096,
			"target":34963
		},
		{
			"buffer":0,
			"byteLength":39300,
			"byteOffset":1864976,
			"target":34962
		},
		{
			"buffer":0,
			"byteLength":39300,
			"byteOffset":1904276,
			"target":34962
		},
		{
			"buffer":0,
			"byteLength":26200,
			"byteOffset":1943576,
			"target":34962
		},
		{
			"buffer":0,
			"byteLength":31152,
			"byteOffset":1969776,
			"target":34963
		}
	],
	"buffers":[
		{
			"byteLength":2000928,
			"uri":"chair-model.bin"
		}
	]
}
